<svg width="23" height="25" viewBox="0 0 23 25" fill="none" xmlns="http://www.w3.org/2000/svg">
<path d="M14.2028 17.7083H18.8968L17.5779 16.2449C17.2202 15.848 17.0192 15.3097 17.0192 14.7484V11.4583C17.0192 8.73705 15.4518 6.42197 13.264 5.56397V5.20833C13.264 4.05774 12.4234 3.125 11.3864 3.125C10.3494 3.125 9.50879 4.05774 9.50879 5.20833V5.56397C7.32102 6.42197 5.75358 8.73705 5.75358 11.4583V14.7484C5.75358 15.3097 5.55263 15.848 5.19493 16.2449L3.87598 17.7083H8.56999M14.2028 17.7083V18.75C14.2028 20.4759 12.9419 21.875 11.3864 21.875C9.83093 21.875 8.56999 20.4759 8.56999 18.75V17.7083M14.2028 17.7083H8.56999" stroke="#3F3F46" stroke-width="1.2" stroke-linecap="round" stroke-linejoin="round"/>
</svg>
