<svg width="24" height="25" viewBox="0 0 24 25" fill="none" xmlns="http://www.w3.org/2000/svg">
<path d="M9.00391 3.34375C9.18319 3.3437 9.35919 3.39185 9.51348 3.48316C9.66777 3.57446 9.79467 3.70557 9.88091 3.86275L9.93191 3.97275L11.9319 8.97275C12.0125 9.17391 12.0255 9.39579 11.969 9.605C11.9126 9.8142 11.7897 9.99941 11.6189 10.1327L11.5189 10.2008L9.84491 11.2048L9.90791 11.3077C10.7047 12.5727 11.7749 13.643 13.0399 14.4397L13.1419 14.5017L14.1469 12.8298C14.2583 12.6438 14.427 12.4991 14.6278 12.4174C14.8285 12.3357 15.0504 12.3215 15.2599 12.3767L15.3749 12.4157L20.3749 14.4157C20.5414 14.4822 20.687 14.5921 20.7964 14.7341C20.9058 14.8761 20.9751 15.0448 20.9969 15.2227L21.0039 15.3438V19.3438C21.0039 21.0007 19.6609 22.3438 17.9439 22.3417C9.36491 21.8207 2.52591 14.9817 2.00391 6.34375C2.00386 5.57854 2.29623 4.84224 2.82119 4.28549C3.34615 3.72874 4.06401 3.39364 4.82791 3.34875L5.00391 3.34375H9.00391Z" fill="#A7A7A7"/>
</svg>
