<svg width="24" height="25" viewBox="0 0 24 25" fill="none" xmlns="http://www.w3.org/2000/svg">
<path d="M12.0039 0.34375C13.5952 0.34375 15.1213 0.975891 16.2465 2.10111C17.3718 3.22633 18.0039 4.75245 18.0039 6.34375C18.0039 7.93505 17.3718 9.46117 16.2465 10.5864C15.1213 11.7116 13.5952 12.3438 12.0039 12.3438C10.4126 12.3438 8.88648 11.7116 7.76127 10.5864C6.63605 9.46117 6.00391 7.93505 6.00391 6.34375C6.00391 4.75245 6.63605 3.22633 7.76127 2.10111C8.88648 0.975891 10.4126 0.34375 12.0039 0.34375ZM12.0039 15.3438C18.6339 15.3438 24.0039 18.0288 24.0039 21.3438V24.3438H0.00390625V21.3438C0.00390625 18.0288 5.37391 15.3438 12.0039 15.3438Z" fill="#A7A7A7"/>
</svg>
