<svg width="24" height="25" viewBox="0 0 24 25" fill="none" xmlns="http://www.w3.org/2000/svg">
<path d="M11.95 18.3438C12.3 18.3438 12.596 18.2228 12.838 17.9808C13.08 17.7388 13.2007 17.4431 13.2 17.0938C13.1993 16.7444 13.0787 16.4484 12.838 16.2058C12.5973 15.9631 12.3013 15.8424 11.95 15.8438C11.5987 15.8451 11.303 15.9661 11.063 16.2068C10.823 16.4474 10.702 16.7431 10.7 17.0938C10.698 17.4444 10.819 17.7404 11.063 17.9818C11.307 18.2231 11.6027 18.3438 11.95 18.3438ZM11.05 14.4938H12.9C12.9 13.9438 12.9627 13.5104 13.088 13.1938C13.2133 12.8771 13.5673 12.4438 14.15 11.8938C14.5833 11.4604 14.925 11.0478 15.175 10.6558C15.425 10.2638 15.55 9.79309 15.55 9.24375C15.55 8.31042 15.2083 7.59376 14.525 7.09376C13.8417 6.59376 13.0333 6.34376 12.1 6.34376C11.15 6.34376 10.3793 6.59376 9.788 7.09376C9.19667 7.59376 8.784 8.19376 8.55 8.89376L10.2 9.54376C10.2833 9.24375 10.471 8.91876 10.763 8.56876C11.055 8.21876 11.5007 8.04376 12.1 8.04376C12.6333 8.04376 13.0333 8.18975 13.3 8.48175C13.5667 8.77375 13.7 9.09442 13.7 9.44376C13.7 9.77709 13.6 10.0898 13.4 10.3818C13.2 10.6738 12.95 10.9444 12.65 11.1938C11.9167 11.8438 11.4667 12.3354 11.3 12.6688C11.1333 13.0021 11.05 13.6104 11.05 14.4938ZM12 22.3438C10.6167 22.3438 9.31667 22.0814 8.1 21.5568C6.88334 21.0321 5.825 20.3194 4.925 19.4188C4.025 18.5181 3.31267 17.4598 2.788 16.2438C2.26333 15.0278 2.00067 13.7278 2 12.3438C1.99933 10.9598 2.262 9.65976 2.788 8.44376C3.314 7.22776 4.02633 6.16942 4.925 5.26876C5.82367 4.36809 6.882 3.65576 8.1 3.13176C9.318 2.60776 10.618 2.34509 12 2.34376C13.382 2.34242 14.682 2.60509 15.9 3.13176C17.118 3.65842 18.1763 4.37076 19.075 5.26876C19.9737 6.16676 20.6863 7.22509 21.213 8.44376C21.7397 9.66242 22.002 10.9624 22 12.3438C21.998 13.7251 21.7353 15.0251 21.212 16.2438C20.6887 17.4624 19.9763 18.5208 19.075 19.4188C18.1737 20.3168 17.1153 21.0294 15.9 21.5568C14.6847 22.0841 13.3847 22.3464 12 22.3438Z" fill="#A7A7A7"/>
</svg>
