<svg width="24" height="25" viewBox="0 0 24 25" fill="none" xmlns="http://www.w3.org/2000/svg">
<path d="M4.00391 19.3438V17.3438H6.00391V10.3438C6.00391 8.96042 6.42057 7.73142 7.25391 6.65675C8.08724 5.58209 9.17057 4.87775 10.5039 4.54375V3.84375C10.5039 3.42709 10.6499 3.07309 10.9419 2.78175C11.2339 2.49042 11.5879 2.34442 12.0039 2.34375C12.4199 2.34309 12.7742 2.48909 13.0669 2.78175C13.3596 3.07442 13.5052 3.42842 13.5039 3.84375V4.54375C14.8372 4.87709 15.9206 5.58142 16.7539 6.65675C17.5872 7.73209 18.0039 8.96108 18.0039 10.3438V17.3438H20.0039V19.3438H4.00391ZM12.0039 22.3438C11.4539 22.3438 10.9832 22.1481 10.5919 21.7568C10.2006 21.3654 10.0046 20.8944 10.0039 20.3438H14.0039C14.0039 20.8937 13.8082 21.3647 13.4169 21.7568C13.0256 22.1488 12.5546 22.3444 12.0039 22.3438Z" fill="#A7A7A7"/>
</svg>
