<svg width="55" height="53" viewBox="0 0 55 53" fill="none" xmlns="http://www.w3.org/2000/svg">
<g clip-path="url(#clip0_803_1511)">
<path d="M30.6796 20.79H31.5896C31.8896 21.6 32.5996 22.2 33.6096 22.2C34.7196 22.2 35.7296 21.29 35.7296 20.08C35.7296 18.87 34.8196 17.96 33.6096 17.96C32.6996 17.96 31.8896 18.57 31.5896 19.37H30.6796C30.5796 17.05 29.6696 14.93 28.1596 13.21L28.9696 12.4C29.2696 12.6 29.6796 12.7 30.0796 12.7C31.3896 12.7 32.3996 11.69 32.3996 10.38C32.3996 9.76997 32.1996 9.16997 31.6896 8.75997C30.7796 7.84997 29.3696 7.84997 28.4596 8.75997C27.7496 9.46997 27.5496 10.68 28.0596 11.49L27.2496 12.5C25.5296 10.99 23.4096 10.08 21.1896 9.97997L21.2896 8.05997C21.9996 7.85997 22.4996 7.14997 22.5996 6.44997C22.6996 5.43997 21.8896 4.52997 20.8796 4.52997C19.8696 4.42997 18.9596 5.23997 18.9596 6.24997C18.9596 7.05997 19.3596 7.75997 20.0696 8.06997L19.9696 10.09C14.8196 10.39 10.6796 14.43 10.3796 19.58H9.78961C9.48961 18.47 8.47961 17.66 7.36961 17.66C5.95961 17.66 4.84961 18.77 4.84961 20.18C4.84961 21.59 5.95961 22.7 7.36961 22.7C8.57961 22.7 9.48961 21.89 9.78961 20.78H10.3996C10.4996 22.9 11.3096 24.82 12.5196 26.43C11.7096 26.23 10.9096 26.53 10.2996 27.04C9.38961 27.95 9.38961 29.46 10.2996 30.27C11.2096 31.18 12.7196 31.18 13.5296 30.27C14.1396 29.66 14.3396 28.86 14.1396 28.05C18.0796 31.18 23.7296 30.98 27.3596 27.44L28.0696 28.15C27.7696 28.76 27.8696 29.56 28.4696 30.07C29.1796 30.78 30.2896 30.78 30.9896 30.07C31.6996 29.36 31.6996 28.25 30.9896 27.55C30.4896 27.05 29.6796 26.94 29.0696 27.15L28.2596 26.34C29.6696 25.03 30.5796 23.01 30.6796 20.79ZM27.4496 25.84L26.1396 24.53C26.9496 23.42 27.4496 22.21 27.5496 20.9H29.4696C29.2696 22.61 28.5596 24.43 27.4496 25.84ZM24.4296 22.81C24.2296 22.61 23.8196 22.61 23.5196 22.81C23.3196 23.01 23.3196 23.42 23.5196 23.72L24.3296 24.53C22.2096 26.45 19.0796 26.45 16.8596 24.73L18.1696 23.42C18.3696 23.22 18.3696 22.81 18.1696 22.51C17.9696 22.31 17.5596 22.31 17.2596 22.51L15.9496 23.82C15.2396 22.91 14.8396 21.9 14.7396 20.79H15.1396C15.4396 20.79 15.7496 20.49 15.7496 20.18C15.7496 19.88 15.4496 19.57 15.1396 19.57H14.7396C14.8396 18.36 15.4496 17.05 16.3596 16.14C18.4796 14.02 21.8096 13.92 24.0296 15.74L23.2196 16.55C23.0196 16.75 23.0196 17.16 23.2196 17.46C23.4196 17.66 23.8296 17.66 24.1296 17.46L24.9396 16.65C25.6496 17.56 26.0496 18.57 26.1496 19.58H24.5396C24.2396 19.58 23.9296 19.88 23.9296 20.19C23.9296 20.49 24.2296 20.8 24.5396 20.8H26.2596C26.1596 21.81 25.7596 22.72 25.2496 23.53L24.4296 22.81ZM33.5096 19.38C34.0096 19.38 34.3196 19.78 34.3196 20.19C34.3196 20.59 33.9196 21 33.5096 21C33.1096 21 32.6996 20.6 32.6996 20.19C32.6996 19.78 33.1096 19.38 33.5096 19.38ZM29.3696 19.58H27.4496C27.3496 18.17 26.7396 16.85 25.8396 15.74L27.1496 14.43C28.5596 15.75 29.2696 17.56 29.3696 19.58ZM29.2696 9.88997C29.4696 9.68997 29.7696 9.58997 29.9796 9.58997C30.5896 9.58997 30.9896 10.09 30.9896 10.6C30.9896 11.21 30.4896 11.61 29.9796 11.61C29.6796 11.61 29.4796 11.51 29.2696 11.31C28.8696 11 28.8696 10.3 29.2696 9.88997ZM20.7896 5.74997C21.0896 5.74997 21.3996 6.04997 21.2896 6.35997C21.2896 6.65997 20.9896 6.96997 20.6796 6.85997C20.3796 6.85997 20.0696 6.55997 20.1796 6.24997C20.1896 5.95997 20.4896 5.64997 20.7896 5.74997ZM19.8796 11.3V11.91C19.8796 12.21 20.1796 12.52 20.4896 12.62C20.8896 12.62 21.0996 12.32 21.1996 12.01V11.3C23.1196 11.4 24.9296 12.21 26.3496 13.42L25.0396 14.73C22.3096 12.41 18.1796 12.51 15.5496 15.13C14.3396 16.34 13.6296 17.86 13.5296 19.47H11.6096C11.9096 15.14 15.4396 11.61 19.8796 11.3ZM7.26961 21.4C6.55961 21.4 6.05961 20.79 6.05961 20.19C6.05961 19.48 6.66961 18.98 7.26961 18.98C7.87961 18.98 8.47961 19.59 8.47961 20.19C8.47961 20.89 7.96961 21.4 7.26961 21.4ZM13.5296 20.79C13.6296 22.2 14.1396 23.52 15.1396 24.73L13.8296 26.04C12.5196 24.53 11.8096 22.71 11.7096 20.79H13.5296ZM12.7196 29.47C12.3196 29.87 11.6096 29.87 11.2096 29.47C10.8096 29.07 10.8096 28.36 11.2096 27.96C11.6096 27.56 12.3196 27.56 12.7196 27.96C13.1196 28.36 13.1196 29.07 12.7196 29.47ZM14.6396 26.95L15.9496 25.64C18.5696 27.86 22.6096 27.86 25.1296 25.44L26.4396 26.75C23.2096 29.88 18.0696 29.88 14.6396 26.95ZM30.1796 28.77C30.3796 28.97 30.3796 29.27 30.1796 29.48C29.9796 29.68 29.6796 29.68 29.4696 29.48C29.2696 29.28 29.2696 28.98 29.4696 28.77C29.6696 28.56 29.9796 28.56 30.1796 28.77Z" fill="#0478C1"/>
<path d="M42.8999 35.6301C41.1799 33.9101 38.5599 33.8101 36.6399 35.2301L33.5099 32.1001C40.1699 24.9301 40.0699 13.6301 33.1099 6.66006C29.6799 3.23006 25.0399 1.31006 20.1899 1.31006C15.3499 1.31006 10.6999 3.23006 7.26992 6.66006C3.83992 10.0901 1.91992 14.7301 1.91992 19.5801C1.91992 24.4301 3.83992 29.0701 7.26992 32.5001C10.6999 35.9301 15.3499 37.8501 20.1899 37.8501C24.8299 37.8501 29.2699 36.1301 32.7099 32.9001L35.8399 36.0301C34.4299 37.8501 34.5299 40.5701 36.2399 42.2901L43.6099 49.6601C45.4299 51.4801 48.4499 51.4801 50.2699 49.6601C52.0899 47.8401 52.0899 44.8201 50.2699 43.0001L42.8999 35.6301ZM8.06992 31.5901C4.83992 28.3601 3.11992 24.1201 3.11992 19.5801C3.11992 15.0401 4.94992 10.8001 8.06992 7.57006C11.2999 4.34006 15.5399 2.62006 20.0799 2.62006C24.6199 2.62006 28.8599 4.44006 32.0899 7.57006C38.7499 14.2301 38.7499 25.0301 32.0899 31.6901C28.8599 34.9201 24.6199 36.6401 20.0799 36.6401C15.6499 36.6401 11.2999 34.8201 8.06992 31.5901ZM49.3599 48.7501C48.0499 50.0601 45.8299 50.0601 44.4099 48.7501L37.0399 41.3801C35.7299 40.0701 35.7299 37.8501 37.0399 36.4301C38.3499 35.1201 40.5699 35.1201 41.9899 36.4301L49.3599 43.8001C50.7699 45.2201 50.7699 47.4401 49.3599 48.7501Z" fill="#0478C1" stroke="#0478C1" stroke-width="0.5" stroke-miterlimit="10"/>
<path d="M39.7709 39.87C39.5709 39.67 39.1609 39.67 38.8609 39.87C38.6609 40.07 38.6609 40.48 38.8609 40.78L44.8209 46.74C45.0209 46.94 45.4309 46.94 45.7309 46.74C45.9309 46.54 45.9309 46.13 45.7309 45.83L39.7709 39.87Z" fill="#0478C1"/>
<path d="M48.5494 13.22C50.9694 13.22 52.9894 11.2 52.9894 8.77997C52.9894 6.35997 50.9694 4.33997 48.5494 4.33997C46.1294 4.33997 44.1094 6.35997 44.1094 8.77997C44.1094 11.2 46.0294 13.22 48.5494 13.22ZM48.5494 5.64997C50.2694 5.64997 51.6794 7.05997 51.6794 8.77997C51.6794 10.5 50.2694 11.91 48.5494 11.91C46.8294 11.91 45.4194 10.5 45.4194 8.77997C45.4194 7.05997 46.7294 5.64997 48.5494 5.64997Z" fill="#0478C1"/>
<path d="M8.1793 40.98C5.0493 40.98 2.5293 43.5 2.5293 46.63C2.5293 49.76 5.0493 52.28 8.1793 52.28C11.3093 52.28 13.8293 49.76 13.8293 46.63C13.8293 43.5 11.2993 40.98 8.1793 40.98ZM8.1793 51.07C5.7593 51.07 3.7393 49.05 3.7393 46.63C3.7393 44.21 5.7593 42.19 8.1793 42.19C10.5993 42.19 12.6193 44.21 12.6193 46.63C12.6193 49.05 10.5993 51.07 8.1793 51.07Z" fill="#0478C1"/>
<path d="M38.7596 3.13C39.2596 3.13 39.6696 3.54 39.6696 4.04C39.6696 4.54 39.2596 4.95 38.7596 4.95C38.2596 4.95 37.8496 4.54 37.8496 4.04C37.8496 3.54 38.2596 3.13 38.7596 3.13Z" fill="#0478C1"/>
<path d="M19.1795 17.0601C19.6795 17.0601 20.0895 17.4701 20.0895 17.9701C20.0895 18.4701 19.6795 18.8801 19.1795 18.8801C18.6795 18.8801 18.2695 18.4701 18.2695 17.9701C18.2695 17.4601 18.6795 17.0601 19.1795 17.0601Z" fill="#0478C1"/>
<path d="M21.1003 20.79C21.9903 20.79 22.7203 21.51 22.7203 22.4C22.7203 23.29 22.0003 24.02 21.1003 24.02C20.2103 24.02 19.4903 23.3 19.4903 22.4C19.4803 21.52 20.2003 20.79 21.1003 20.79Z" fill="#0478C1"/>
<path d="M53.1893 18.98C53.6893 18.98 54.0993 19.39 54.0993 19.89C54.0993 20.39 53.6893 20.8 53.1893 20.8C52.6893 20.8 52.2793 20.39 52.2793 19.89C52.2793 19.38 52.6893 18.98 53.1893 18.98Z" fill="#0478C1"/>
<path d="M45.6209 27.76C46.1209 27.76 46.5309 28.17 46.5309 28.67C46.5309 29.17 46.1209 29.58 45.6209 29.58C45.1209 29.58 44.7109 29.17 44.7109 28.67C44.7109 28.16 45.1209 27.76 45.6209 27.76Z" fill="#0478C1"/>
<path d="M36.2401 50.47C36.7401 50.47 37.1501 50.88 37.1501 51.38C37.1501 51.88 36.7401 52.29 36.2401 52.29C35.7401 52.29 35.3301 51.88 35.3301 51.38C35.3301 50.87 35.7301 50.47 36.2401 50.47Z" fill="#0478C1"/>
<path d="M22.91 42.29C23.41 42.29 23.82 42.7 23.82 43.2C23.82 43.7 23.41 44.11 22.91 44.11C22.41 44.11 22 43.7 22 43.2C22 42.7 22.41 42.29 22.91 42.29Z" fill="#0478C1"/>
<path d="M0.91 33.41C1.41 33.41 1.82 33.82 1.82 34.32C1.82 34.82 1.41 35.23 0.91 35.23C0.41 35.23 0 34.82 0 34.32C0 33.82 0.41 33.41 0.91 33.41Z" fill="#0478C1"/>
<path d="M7.16977 0C7.66977 0 8.07977 0.41 8.07977 0.91C8.07977 1.41 7.66977 1.82 7.16977 1.82C6.66977 1.82 6.25977 1.41 6.25977 0.91C6.25977 0.41 6.65977 0 7.16977 0Z" fill="#0478C1"/>
</g>
<defs>
<clipPath id="clip0_803_1511">
<rect width="54.1" height="52.28" fill="white"/>
</clipPath>
</defs>
</svg>
