<svg width="53" height="53" viewBox="0 0 53 53" fill="none" xmlns="http://www.w3.org/2000/svg">
<path d="M14.3548 4.41675C11.3189 4.41675 8.83398 6.90166 8.83398 9.93758V44.1667C8.83398 47.2027 11.3189 49.6876 14.3548 49.6876H38.6465C41.6824 49.6876 44.1673 47.2027 44.1673 44.1667V22.0834C44.1694 21.9371 44.1423 21.7918 44.0878 21.6561C44.0332 21.5203 43.9522 21.3967 43.8495 21.2925C43.7467 21.1883 43.6243 21.1056 43.4893 21.0491C43.3543 20.9926 43.2095 20.9635 43.0631 20.9635C42.9168 20.9635 42.7719 20.9926 42.637 21.0491C42.502 21.1056 42.3795 21.1883 42.2768 21.2925C42.1741 21.3967 42.0931 21.5203 42.0385 21.6561C41.9839 21.7918 41.9569 21.9371 41.959 22.0834V44.1667C41.959 46.009 40.4888 47.4792 38.6465 47.4792H14.3548C12.5125 47.4792 11.0423 46.009 11.0423 44.1667V9.93758C11.0423 8.0953 12.5125 6.62508 14.3548 6.62508H29.5457C29.6462 6.62508 29.7148 6.72169 29.8131 6.73507V14.3542C29.8131 16.7805 31.8036 18.7709 34.2298 18.7709H43.0631C43.2815 18.7708 43.4949 18.706 43.6764 18.5847C43.8579 18.4633 43.9994 18.2909 44.0829 18.0892C44.1665 17.8875 44.1884 17.6655 44.1458 17.4514C44.1032 17.2372 43.9982 17.0405 43.8438 16.8861L32.6685 5.71069C31.8408 4.8816 30.7169 4.41675 29.5457 4.41675H14.3548ZM32.0215 8.18644L40.3976 16.5626H34.2298C32.9968 16.5626 32.0215 15.5872 32.0215 14.3542V8.18644ZM17.6673 26.5001C17.521 26.498 17.3757 26.525 17.24 26.5796C17.1042 26.6342 16.9806 26.7152 16.8764 26.8179C16.7722 26.9206 16.6895 27.0431 16.633 27.1781C16.5765 27.313 16.5474 27.4579 16.5474 27.6042C16.5474 27.7506 16.5765 27.8954 16.633 28.0304C16.6895 28.1654 16.7722 28.2879 16.8764 28.3906C16.9806 28.4933 17.1042 28.5743 17.24 28.6289C17.3757 28.6835 17.521 28.7105 17.6673 28.7084H35.334C35.4803 28.7105 35.6256 28.6835 35.7613 28.6289C35.8971 28.5743 36.0207 28.4933 36.1249 28.3906C36.2291 28.2879 36.3118 28.1654 36.3683 28.0304C36.4248 27.8954 36.4539 27.7506 36.4539 27.6042C36.4539 27.4579 36.4248 27.313 36.3683 27.1781C36.3118 27.0431 36.2291 26.9206 36.1249 26.8179C36.0207 26.7152 35.8971 26.6342 35.7613 26.5796C35.6256 26.525 35.4803 26.498 35.334 26.5001H17.6673ZM17.6673 32.0209C17.521 32.0188 17.3757 32.0459 17.24 32.1004C17.1042 32.155 16.9806 32.236 16.8764 32.3387C16.7722 32.4415 16.6895 32.5639 16.633 32.6989C16.5765 32.8339 16.5474 32.9788 16.5474 33.1251C16.5474 33.2714 16.5765 33.4163 16.633 33.5513C16.6895 33.6863 16.7722 33.8087 16.8764 33.9114C16.9806 34.0142 17.1042 34.0952 17.24 34.1497C17.3757 34.2043 17.521 34.2313 17.6673 34.2292H35.334C35.4803 34.2313 35.6256 34.2043 35.7613 34.1497C35.8971 34.0952 36.0207 34.0142 36.1249 33.9114C36.2291 33.8087 36.3118 33.6863 36.3683 33.5513C36.4248 33.4163 36.4539 33.2714 36.4539 33.1251C36.4539 32.9788 36.4248 32.8339 36.3683 32.6989C36.3118 32.5639 36.2291 32.4415 36.1249 32.3387C36.0207 32.236 35.8971 32.155 35.7613 32.1004C35.6256 32.0459 35.4803 32.0188 35.334 32.0209H17.6673ZM17.6673 37.5417C17.521 37.5397 17.3757 37.5667 17.24 37.6213C17.1042 37.6758 16.9806 37.7568 16.8764 37.8596C16.7722 37.9623 16.6895 38.0847 16.633 38.2197C16.5765 38.3547 16.5474 38.4996 16.5474 38.6459C16.5474 38.7922 16.5765 38.9371 16.633 39.0721C16.6895 39.2071 16.7722 39.3295 16.8764 39.4323C16.9806 39.535 17.1042 39.616 17.24 39.6706C17.3757 39.7251 17.521 39.7521 17.6673 39.7501H28.709C28.8553 39.7521 29.0006 39.7251 29.1363 39.6706C29.2721 39.616 29.3957 39.535 29.4999 39.4323C29.6041 39.3295 29.6868 39.2071 29.7433 39.0721C29.7998 38.9371 29.8289 38.7922 29.8289 38.6459C29.8289 38.4996 29.7998 38.3547 29.7433 38.2197C29.6868 38.0847 29.6041 37.9623 29.4999 37.8596C29.3957 37.7568 29.2721 37.6758 29.1363 37.6213C29.0006 37.5667 28.8553 37.5397 28.709 37.5417H17.6673Z" fill="#0478C1"/>
<rect x="17.3125" y="15.1042" width="7.33333" height="7.33333" fill="white" stroke="#0478C1" stroke-width="1.5"/>
</svg>
