<svg width="24" height="24" viewBox="0 0 24 24" fill="none" xmlns="http://www.w3.org/2000/svg">
<path d="M21 5.63225C20.4605 5.23348 19.8074 5.01828 19.1365 5.01828C18.4656 5.01828 17.8125 5.23348 17.273 5.63225C16.9394 5.87411 16.5371 6.00284 16.125 5.9996C15.713 5.99636 15.3128 5.86132 14.983 5.61425C13.847 4.79525 12.393 4.79525 11.273 5.61425C10.571 6.11625 9.685 6.11625 9 5.61425M3 9.37725C3.55928 9.77608 4.22908 9.99044 4.916 9.99044C5.60292 9.99044 6.27272 9.77608 6.832 9.37725C7.17226 9.13246 7.58083 9.00076 8 9.00076C8.41917 9.00076 8.82774 9.13246 9.168 9.37725C10.337 10.1953 11.848 10.2143 13 9.39525M21 14.6233C20.4605 14.2245 19.8074 14.0093 19.1365 14.0093C18.4656 14.0093 17.8125 14.2245 17.273 14.6233C16.9447 14.8683 16.5461 15.0006 16.1365 15.0006C15.7269 15.0006 15.3283 14.8683 15 14.6233C13.864 13.8052 12.393 13.7862 11.273 14.6052C10.571 15.1072 9.685 15.1072 9 14.6052M3 18.3773C3.55928 18.7761 4.22908 18.9904 4.916 18.9904C5.60292 18.9904 6.27272 18.7761 6.832 18.3773C7.17226 18.1325 7.58083 18.0008 8 18.0008C8.41917 18.0008 8.82774 18.1325 9.168 18.3773C10.337 19.1953 11.848 19.2143 13 18.3953" stroke="#0478C1" stroke-width="2.5" stroke-linecap="round" stroke-linejoin="round"/>
</svg>
