<svg width="55" height="54" viewBox="0 0 55 54" fill="none" xmlns="http://www.w3.org/2000/svg">
<path d="M0.864907 1.14963C0.130217 1.59993 0.0117188 1.96727 0.0117188 3.75659C0.0117188 5.54592 0.130217 5.91326 0.864907 6.36356C1.23225 6.58871 1.46925 6.60055 4.9057 6.60055H8.5436V7.86849C8.5436 8.93497 8.57915 9.20752 8.7806 9.53931C9.06499 10.0015 9.66933 10.3925 10.1196 10.3925H10.4396V11.7552V13.1298L10.9017 13.6275L11.3757 14.1252H13.2717H15.1795L15.6179 13.6749L16.0682 13.2365L16.1038 11.8145L16.1512 10.3925H16.4593C16.8977 10.3925 17.5021 10.0015 17.7865 9.53931C17.9879 9.20752 18.0235 8.93497 18.0235 7.86849V6.60055H27.4322H36.8292L36.8884 7.89219C36.9358 9.07717 36.9714 9.21937 37.2676 9.61041C37.6112 10.0607 38.1326 10.3925 38.5 10.3925C38.7133 10.3925 38.737 10.4992 38.7725 11.6604C38.8199 12.7151 38.8673 13.0113 39.0806 13.355C39.5309 14.0896 39.839 14.1844 41.6876 14.1844C43.1096 14.1844 43.3703 14.1489 43.7139 13.9475C44.413 13.5209 44.5671 13.1061 44.5671 11.6604V10.3925H44.8989C45.3373 10.3925 45.9417 10.0015 46.2261 9.53931C46.4275 9.20752 46.4631 8.93497 46.4631 7.86849V6.60055H50.1128H53.7507L54.1773 6.31616C54.8646 5.85402 54.9949 5.42742 54.9949 3.73289C54.9949 2.08577 54.8527 1.64732 54.1655 1.17333L53.7744 0.912635H27.5152C1.51665 0.912635 1.25595 0.912635 0.864907 1.14963ZM53.099 3.75659V4.70458H27.5033H1.90769V3.75659V2.80861H27.5033H53.099V3.75659ZM16.1275 7.54854V8.49653H13.2835H10.4396V7.54854V6.60055H13.2835H16.1275V7.54854ZM44.5671 7.54854V8.49653H41.7231H38.8792V7.54854V6.60055H41.7231H44.5671V7.54854ZM14.2315 11.3405V12.2885H13.2835H12.3355V11.3405V10.3925H13.2835H14.2315V11.3405ZM42.6711 11.3405V12.2885H41.7231H40.7751V11.3405V10.3925H41.7231H42.6711V11.3405Z" fill="#0478C1"/>
<path d="M9.3949 15.2156C8.88536 15.6659 7.94922 17.2182 7.94922 17.6093C7.94922 18.3913 8.992 18.8772 9.5845 18.3558C10.094 17.9174 11.0302 16.365 11.0302 15.974C11.0302 15.1919 9.98739 14.706 9.3949 15.2156Z" fill="#0478C1"/>
<path d="M15.8307 15.3103C15.3449 15.7843 15.4278 16.2346 16.1862 17.3247C16.9565 18.4386 17.1105 18.569 17.6201 18.569C18.1178 18.569 18.4851 18.249 18.5681 17.7395C18.6273 17.384 18.5444 17.1944 18.0467 16.4241C17.7267 15.9265 17.3357 15.4051 17.1816 15.2629C16.8024 14.9192 16.1981 14.9311 15.8307 15.3103Z" fill="#0478C1"/>
<path d="M37.8344 15.2156C37.3248 15.6659 36.3887 17.2182 36.3887 17.6093C36.3887 18.3913 37.4315 18.8772 38.0239 18.3558C38.5335 17.9174 39.4696 16.365 39.4696 15.974C39.4696 15.1919 38.4268 14.706 37.8344 15.2156Z" fill="#0478C1"/>
<path d="M44.2702 15.3103C43.7844 15.7843 43.8673 16.2346 44.6257 17.3247C45.3959 18.4386 45.55 18.569 46.0714 18.569C46.5809 18.569 47.0549 18.1187 47.0549 17.6447C47.0549 17.2773 46.1188 15.7369 45.6211 15.2629C45.2419 14.9192 44.6375 14.9311 44.2702 15.3103Z" fill="#0478C1"/>
<path d="M12.571 16.3175C12.3577 16.5308 12.334 16.7085 12.334 17.9765C12.334 19.6354 12.4525 19.8724 13.282 19.8724C14.1115 19.8724 14.23 19.6354 14.23 17.9765C14.23 16.3175 14.1115 16.0805 13.282 16.0805C12.962 16.0805 12.725 16.1634 12.571 16.3175Z" fill="#0478C1"/>
<path d="M41.0104 16.3175C40.7971 16.5308 40.7734 16.7085 40.7734 17.9765C40.7734 19.6354 40.8919 19.8724 41.7214 19.8724C42.5509 19.8724 42.6694 19.6354 42.6694 17.9765C42.6694 16.3175 42.5509 16.0805 41.7214 16.0805C41.4015 16.0805 41.1645 16.1634 41.0104 16.3175Z" fill="#0478C1"/>
<path d="M6.38528 19.7896C6.20753 19.8726 5.76909 20.3584 5.40174 20.8798C4.8922 21.6145 4.75 21.9226 4.75 22.2663C4.75 22.8706 5.0818 23.1906 5.69799 23.1906C6.26678 23.1906 6.44453 23.0365 7.25032 21.7923C7.74801 21.0457 7.83096 20.8206 7.78356 20.5243C7.64136 19.8489 7.00147 19.5053 6.38528 19.7896Z" fill="#0478C1"/>
<path d="M19.3252 19.7894C18.946 19.979 18.7091 20.4411 18.7802 20.844C18.8513 21.2351 20.0836 23.0125 20.3443 23.1192C21.0909 23.4036 21.8137 22.9651 21.8137 22.2304C21.8137 21.6853 20.605 19.9316 20.1073 19.7538C19.6807 19.6116 19.6807 19.6116 19.3252 19.7894Z" fill="#0478C1"/>
<path d="M34.8247 19.7896C34.647 19.8726 34.2085 20.3584 33.8412 20.8798C33.3317 21.6145 33.1895 21.9226 33.1895 22.2663C33.1895 22.8706 33.5212 23.1906 34.1374 23.1906C34.7062 23.1906 34.884 23.0365 35.6898 21.7923C36.1875 21.0457 36.2704 20.8206 36.223 20.5243C36.0808 19.8489 35.4409 19.5053 34.8247 19.7896Z" fill="#0478C1"/>
<path d="M47.9318 19.7186C47.5289 19.8015 47.2326 20.2044 47.2445 20.6784C47.2445 21.022 47.3985 21.3301 47.9199 22.0767C48.6428 23.1076 48.7494 23.1906 49.3538 23.1906C49.8633 23.1906 50.2543 22.7758 50.2543 22.2307C50.2543 21.6856 49.0457 19.9318 48.548 19.7541C48.3584 19.6949 48.2043 19.6475 48.1925 19.6475C48.1806 19.6593 48.0621 19.6949 47.9318 19.7186Z" fill="#0478C1"/>
<path d="M12.571 22.0055C12.3577 22.2188 12.334 22.3965 12.334 23.6645C12.334 25.3234 12.4525 25.5604 13.282 25.5604C14.1115 25.5604 14.23 25.3234 14.23 23.6645C14.23 22.0055 14.1115 21.7685 13.282 21.7685C12.962 21.7685 12.725 21.8514 12.571 22.0055Z" fill="#0478C1"/>
<path d="M41.0104 22.0055C40.7971 22.2188 40.7734 22.3965 40.7734 23.6645C40.7734 25.3234 40.8919 25.5604 41.7214 25.5604C42.5509 25.5604 42.6694 25.3234 42.6694 23.6645C42.6694 22.0055 42.5509 21.7685 41.7214 21.7685C41.4015 21.7685 41.1645 21.8514 41.0104 22.0055Z" fill="#0478C1"/>
<path d="M12.7017 26.8285C12.1211 27.1129 11.2323 28.0609 10.8294 28.843C10.154 30.1346 10.0236 30.6915 10.0236 32.3742C10.0236 33.5711 10.071 34.0569 10.2488 34.5664C10.6043 35.6211 11.1257 36.5217 11.7537 37.1379L12.3344 37.7066V39.2234C12.3344 40.681 12.204 41.1075 12.0618 40.1596C11.8841 39.0575 10.6872 37.363 9.52595 36.5691C8.72016 36.0121 7.67738 35.5263 6.85974 35.3367C5.18891 34.9456 3.16259 35.2182 2.27385 35.9647C1.89466 36.2847 1.85911 36.3439 1.88281 36.972C1.94206 39.3419 4.25277 41.8304 7.07303 42.5532C7.98547 42.7902 9.73925 42.8021 10.4976 42.5769C11.1612 42.3755 11.256 42.411 11.8959 43.205C12.3107 43.7145 12.3344 43.7975 12.3344 44.544V45.3379L6.42129 45.3735C0.804472 45.409 0.496376 45.4209 0.259379 45.6342C-0.096116 45.9541 -0.0842662 46.7599 0.283079 47.1036L0.555625 47.3643H27.514H54.4842L54.7331 47.0917C55.0767 46.7362 55.0886 45.9423 54.7686 45.6579C54.5672 45.4683 54.0458 45.4564 48.6067 45.4683H42.6699V44.6743V43.8686L43.3217 43.1457L43.9616 42.411L44.6489 42.5769C46.059 42.9087 47.6943 42.6599 49.2703 41.8896C50.3012 41.3801 51.7588 40.0174 52.2327 39.1049C52.9793 37.7066 53.1807 36.3913 52.7423 35.8344C52.6119 35.6685 52.1972 35.4078 51.818 35.2656C51.2492 35.0286 50.9174 34.993 49.7798 34.993C48.6067 34.993 48.2986 35.0404 47.5521 35.3011C46.3671 35.7277 45.5139 36.261 44.637 37.126C43.8431 37.9081 43.1084 39.1642 42.9662 39.9581C42.7766 40.9772 42.6818 40.7402 42.6699 39.2827V37.7896L43.298 37.1497C44.5304 35.8818 45.0992 34.1754 45.0044 32.0187C44.9451 30.6915 44.7555 29.945 44.2104 28.8785C43.8431 28.1557 42.824 27.1129 42.2315 26.8403C41.7338 26.6152 41.7101 26.6152 41.2243 26.8403C40.1341 27.3262 39.0202 28.9141 38.5817 30.5967C38.3566 31.4855 38.3566 33.2156 38.5817 34.1754C38.8424 35.2774 39.4468 36.4269 40.1578 37.1497L40.774 37.7896V39.259C40.774 40.7047 40.6555 41.0838 40.4777 40.1714C40.217 38.7139 38.7476 36.9127 37.1361 36.0714C35.0623 34.9812 32.6687 34.8627 31.0334 35.7751C30.3224 36.1662 30.1684 36.5335 30.3343 37.4459C30.7253 39.6619 32.7279 41.7119 35.2638 42.5058C36.3066 42.8258 38.1907 42.8613 38.9846 42.5769L39.5179 42.3873L39.98 42.8258C40.6199 43.4538 40.774 43.8093 40.774 44.6388V45.3498H27.5614H14.3488V44.544C14.3488 43.7501 14.3607 43.7145 14.9176 43.0628C15.3324 42.5651 15.5338 42.411 15.7116 42.4584C17.6431 42.9324 19.1362 42.7428 20.9255 41.8185C22.0157 41.2497 23.3192 39.9937 23.8287 39.0575C24.5041 37.7896 24.7293 36.4269 24.3501 35.8936C23.6747 34.9219 20.9136 34.6257 19.0651 35.313C16.7899 36.1425 15.0835 37.8844 14.5384 39.9107L14.3607 40.5506V39.1286L14.3488 37.6948L14.9176 37.0905C17.0743 34.8034 17.1928 30.4901 15.1783 27.9542C14.6688 27.3262 13.6971 26.6271 13.3297 26.6271C13.2112 26.6271 12.9269 26.7218 12.7017 26.8285ZM13.7326 29.4947C14.254 30.2768 14.491 30.9878 14.5503 32.0306C14.6451 33.4526 14.2066 34.9456 13.5312 35.5618C13.2823 35.787 13.2705 35.787 12.9979 35.5263C12.8439 35.3841 12.5595 34.9338 12.3818 34.5309C12.0737 33.8673 12.0381 33.6659 12.0381 32.4927C12.0381 31.4973 12.0855 31.047 12.2633 30.5967C12.5121 29.945 13.1164 28.997 13.2823 28.997C13.3416 28.997 13.543 29.2222 13.7326 29.4947ZM42.1722 29.4947C42.6936 30.2768 42.9306 30.9878 42.9899 32.0306C43.0847 33.4526 42.6462 34.9456 41.9708 35.5618C41.7219 35.787 41.7101 35.787 41.4376 35.5263C41.2835 35.3841 40.9991 34.9338 40.8214 34.5309C40.5133 33.8673 40.4777 33.6659 40.4777 32.4927C40.4777 31.4973 40.5251 31.047 40.7029 30.5967C40.9517 29.945 41.556 28.997 41.7219 28.997C41.7812 28.997 41.9826 29.2222 42.1722 29.4947ZM22.3712 37.1023C22.4067 37.1379 22.3475 37.4104 22.229 37.7185C21.9683 38.4058 20.807 39.6026 19.9657 40.0411C18.9229 40.598 17.5246 40.8587 16.7425 40.6573C16.387 40.5506 16.4581 40.1951 17.015 39.3419C17.6786 38.3347 18.8992 37.4696 20.1908 37.1142C20.7714 36.9483 22.2053 36.9364 22.3712 37.1023ZM50.8108 37.1023C50.8463 37.1379 50.7871 37.4104 50.6686 37.7185C50.4079 38.4058 49.2466 39.6026 48.4053 40.0411C47.3625 40.598 45.9642 40.8587 45.1821 40.6573C44.8266 40.5506 44.8977 40.1951 45.4546 39.3419C46.1182 38.3347 47.3388 37.4696 48.6304 37.1142C49.211 36.9483 50.6449 36.9364 50.8108 37.1023ZM6.32649 37.3511C7.79587 37.7303 9.21785 38.7968 9.7748 39.9226C10.1303 40.6336 10.0947 40.6928 9.1586 40.8113C8.10397 40.9298 6.55164 40.3966 5.44961 39.5315C4.85711 39.0575 4.08687 38.0147 4.01578 37.6C3.94468 37.1734 5.15336 37.0431 6.32649 37.3511ZM34.7661 37.3511C36.2355 37.7303 37.6575 38.7968 38.2144 39.9226C38.5699 40.6336 38.5343 40.6928 37.5982 40.8113C36.5436 40.9298 34.9912 40.3966 33.8892 39.5315C33.2967 39.0575 32.5265 38.0147 32.4554 37.6C32.3843 37.1734 33.593 37.0431 34.7661 37.3511Z" fill="#0478C1"/>
<path d="M18.2585 48.549C18.1044 48.7031 18.0215 48.9401 18.0215 49.26C18.0215 50.0895 18.2585 50.208 19.9175 50.208C21.5764 50.208 21.8134 50.0895 21.8134 49.26C21.8134 48.4305 21.5764 48.312 19.9175 48.312C18.6495 48.312 18.4718 48.3357 18.2585 48.549Z" fill="#0478C1"/>
<path d="M33.4264 48.549C33.2724 48.7031 33.1895 48.9401 33.1895 49.26C33.1895 50.0895 33.4264 50.208 35.0854 50.208C36.7444 50.208 36.9814 50.0895 36.9814 49.26C36.9814 48.4305 36.7444 48.312 35.0854 48.312C33.8175 48.312 33.6397 48.3357 33.4264 48.549Z" fill="#0478C1"/>
<path d="M3.09051 49.4973C2.93646 49.6513 2.85352 49.8883 2.85352 50.2083C2.85352 51.0378 3.09051 51.1562 4.74949 51.1562C6.40847 51.1562 6.64546 51.0378 6.64546 50.2083C6.64546 49.3788 6.40847 49.2603 4.74949 49.2603C3.48156 49.2603 3.30381 49.284 3.09051 49.4973Z" fill="#0478C1"/>
<path d="M48.5944 49.4973C48.4404 49.6513 48.3574 49.8883 48.3574 50.2083C48.3574 51.0378 48.5944 51.1562 50.2534 51.1562C51.9124 51.1562 52.1494 51.0378 52.1494 50.2083C52.1494 49.3788 51.9124 49.2603 50.2534 49.2603C48.9855 49.2603 48.8077 49.284 48.5944 49.4973Z" fill="#0478C1"/>
<path d="M10.6745 52.341C10.5204 52.4951 10.4375 52.7321 10.4375 53.052C10.4375 53.8815 10.6745 54 12.3335 54C13.9924 54 14.2294 53.8815 14.2294 53.052C14.2294 52.2225 13.9924 52.104 12.3335 52.104C11.0655 52.104 10.8878 52.1277 10.6745 52.341Z" fill="#0478C1"/>
<path d="M25.8425 52.341C25.6884 52.4951 25.6055 52.7321 25.6055 53.052C25.6055 53.8815 25.8425 54 27.5014 54C29.1604 54 29.3974 53.8815 29.3974 53.052C29.3974 52.2225 29.1604 52.104 27.5014 52.104C26.2335 52.104 26.0558 52.1277 25.8425 52.341Z" fill="#0478C1"/>
<path d="M41.0104 52.341C40.8564 52.4951 40.7734 52.7321 40.7734 53.052C40.7734 53.8815 41.0104 54 42.6694 54C44.3284 54 44.5654 53.8815 44.5654 53.052C44.5654 52.2225 44.3284 52.104 42.6694 52.104C41.4015 52.104 41.2237 52.1277 41.0104 52.341Z" fill="#0478C1"/>
</svg>
