<svg width="20" height="21" viewBox="0 0 20 21" fill="none" xmlns="http://www.w3.org/2000/svg">
<g clip-path="url(#clip0_863_13584)">
<path fill-rule="evenodd" clip-rule="evenodd" d="M0.842026 1.62691C0.00488273 2.31632 0.00488281 3.42456 0.00488281 5.64338V16.2316C0.00488281 18.4504 0.00488273 19.5587 0.842026 20.2481C1.67917 20.9375 3.02488 20.9375 5.71917 20.9375H14.2906C16.9849 20.9375 18.3306 20.9375 19.1677 20.2481C20.0049 19.5587 20.0049 18.4504 20.0049 16.2316V5.64338C20.0049 3.42456 20.0049 2.31632 19.1677 1.62691C18.3306 0.9375 16.9849 0.9375 14.2906 0.9375H5.71917C3.02488 0.9375 1.67917 0.9375 0.842026 1.62691ZM5.71917 5.64338C5.34029 5.64338 4.97693 5.76733 4.70902 5.98796C4.44111 6.20859 4.2906 6.50783 4.2906 6.81985C4.2906 7.13187 4.44111 7.43111 4.70902 7.65174C4.97693 7.87237 5.34029 7.99632 5.71917 7.99632H14.2906C14.6695 7.99632 15.0328 7.87237 15.3007 7.65174C15.5687 7.43111 15.7192 7.13187 15.7192 6.81985C15.7192 6.50783 15.5687 6.20859 15.3007 5.98796C15.0328 5.76733 14.6695 5.64338 14.2906 5.64338H5.71917ZM5.71917 10.3493C5.34029 10.3493 4.97693 10.4732 4.70902 10.6938C4.44111 10.9145 4.2906 11.2137 4.2906 11.5257C4.2906 11.8378 4.44111 12.137 4.70902 12.3576C4.97693 12.5783 5.34029 12.7022 5.71917 12.7022H14.2906C14.6695 12.7022 15.0328 12.5783 15.3007 12.3576C15.5687 12.137 15.7192 11.8378 15.7192 11.5257C15.7192 11.2137 15.5687 10.9145 15.3007 10.6938C15.0328 10.4732 14.6695 10.3493 14.2906 10.3493H5.71917ZM5.71917 15.0551C5.34029 15.0551 4.97693 15.1791 4.70902 15.3997C4.44111 15.6204 4.2906 15.9196 4.2906 16.2316C4.2906 16.5436 4.44111 16.8429 4.70902 17.0635C4.97693 17.2841 5.34029 17.4081 5.71917 17.4081H11.4335C11.8123 17.4081 12.1757 17.2841 12.4436 17.0635C12.7115 16.8429 12.862 16.5436 12.862 16.2316C12.862 15.9196 12.7115 15.6204 12.4436 15.3997C12.1757 15.1791 11.8123 15.0551 11.4335 15.0551H5.71917Z" fill="#A7A7A7"/>
</g>
<defs>
<clipPath id="clip0_863_13584">
<rect width="20" height="20" fill="white" transform="translate(0.00488281 0.9375)"/>
</clipPath>
</defs>
</svg>
