<svg width="31" height="31" viewBox="0 0 31 31" fill="none" xmlns="http://www.w3.org/2000/svg">
<path d="M15.5 28.4167C15.1986 28.4167 14.9403 28.3306 14.725 28.1584C14.5097 27.9862 14.3483 27.7601 14.2406 27.4803C13.8316 26.2747 13.3149 25.1445 12.6906 24.0896C12.0879 23.0348 11.2375 21.7969 10.1396 20.3761C9.04168 18.9552 8.14827 17.599 7.45939 16.3073C6.79202 15.0157 6.45834 13.4549 6.45834 11.625C6.45834 9.10629 7.33022 6.97504 9.07397 5.23129C10.8392 3.46601 12.9813 2.58337 15.5 2.58337C18.0188 2.58337 20.15 3.46601 21.8938 5.23129C23.659 6.97504 24.5417 9.10629 24.5417 11.625C24.5417 13.5841 24.1649 15.2202 23.4115 16.5334C22.6795 17.825 21.8292 19.1059 20.8604 20.3761C19.6979 21.9261 18.8153 23.2177 18.2125 24.2511C17.6313 25.2629 17.1469 26.3393 16.7594 27.4803C16.6517 27.7816 16.4795 28.0184 16.2427 28.1907C16.0274 28.3414 15.7799 28.4167 15.5 28.4167ZM15.5 23.799C15.866 23.0671 16.275 22.3459 16.7271 21.6355C17.2007 20.925 17.8896 19.9778 18.7938 18.7938C19.7195 17.5882 20.4729 16.4796 21.0542 15.4677C21.657 14.4344 21.9583 13.1535 21.9583 11.625C21.9583 9.83823 21.3233 8.32053 20.0531 7.07192C18.8045 5.80178 17.2868 5.16671 15.5 5.16671C13.7132 5.16671 12.1847 5.80178 10.9146 7.07192C9.66598 8.32053 9.04168 9.83823 9.04168 11.625C9.04168 13.1535 9.3323 14.4344 9.91355 15.4677C10.5163 16.4796 11.2806 17.5882 12.2063 18.7938C13.1104 19.9778 13.7886 20.925 14.2406 21.6355C14.7142 22.3459 15.134 23.0671 15.5 23.799ZM15.5 14.8542C16.4042 14.8542 17.1684 14.5421 17.7927 13.9177C18.417 13.2934 18.7292 12.5292 18.7292 11.625C18.7292 10.7209 18.417 9.95664 17.7927 9.33233C17.1684 8.70803 16.4042 8.39587 15.5 8.39587C14.5958 8.39587 13.8316 8.70803 13.2073 9.33233C12.583 9.95664 12.2708 10.7209 12.2708 11.625C12.2708 12.5292 12.583 13.2934 13.2073 13.9177C13.8316 14.5421 14.5958 14.8542 15.5 14.8542Z" fill="#0478C1"/>
</svg>
