<svg width="24" height="25" viewBox="0 0 24 25" fill="none" xmlns="http://www.w3.org/2000/svg">
<path d="M16.0049 17.4688V19.4688H2.00488V17.4688C2.00488 17.4688 2.00488 13.4688 9.00488 13.4688C16.0049 13.4688 16.0049 17.4688 16.0049 17.4688ZM12.5049 7.96879C12.5049 7.27655 12.2996 6.59986 11.915 6.02429C11.5304 5.44872 10.9838 5.00012 10.3443 4.73521C9.70473 4.4703 9.001 4.40099 8.32207 4.53604C7.64313 4.67109 7.01949 5.00443 6.53001 5.49391C6.04053 5.9834 5.70718 6.60704 5.57213 7.28597C5.43709 7.9649 5.5064 8.66864 5.7713 9.30818C6.03621 9.94772 6.48482 10.4943 7.06039 10.8789C7.63596 11.2635 8.31265 11.4688 9.00488 11.4688C9.93314 11.4688 10.8234 11.1 11.4798 10.4437C12.1361 9.78728 12.5049 8.89704 12.5049 7.96879ZM15.9449 13.4688C16.5596 13.9445 17.0627 14.5492 17.4186 15.2403C17.7745 15.9314 17.9746 16.692 18.0049 17.4688V19.4688H22.0049V17.4688C22.0049 17.4688 22.0049 13.8388 15.9449 13.4688ZM15.0049 4.46879C14.3167 4.46559 13.6437 4.67132 13.0749 5.05879C13.6823 5.90752 14.0089 6.92507 14.0089 7.96879C14.0089 9.0125 13.6823 10.0301 13.0749 10.8788C13.6437 11.2663 14.3167 11.472 15.0049 11.4688C15.9331 11.4688 16.8234 11.1 17.4798 10.4437C18.1361 9.78728 18.5049 8.89704 18.5049 7.96879C18.5049 7.04053 18.1361 6.15029 17.4798 5.49391C16.8234 4.83754 15.9331 4.46879 15.0049 4.46879Z" fill="#A7A7A7"/>
</svg>
