<svg width="35" height="33" viewBox="0 0 35 33" fill="none" xmlns="http://www.w3.org/2000/svg">
<path d="M28.0729 4.04443H6.92707C4.71478 4.04443 2.91666 5.6981 2.91666 7.73236V24.4768C2.91666 26.511 4.71478 28.1661 6.92707 28.1661H28.0729C30.2852 28.1661 32.0833 26.511 32.0833 24.4768V7.73236C32.0833 5.6981 30.2852 4.04443 28.0729 4.04443ZM6.92707 6.05457H28.0729C29.0792 6.05457 29.8958 6.80502 29.8958 7.72968V8.68651L18.1562 15.8788C17.7581 16.12 17.2433 16.1227 16.8437 15.8761L5.10416 8.68651V7.72968C5.10416 6.80502 5.92082 6.05457 6.92707 6.05457V6.05457ZM28.0729 26.1532H6.92707C5.92082 26.1532 5.10416 25.4028 5.10416 24.4781V11.0424L15.6625 17.515C16.221 17.8581 16.8612 18.0296 17.5 18.0296C18.1417 18.0296 18.7789 17.8581 19.3375 17.5164L29.8958 11.0437V24.4741C29.8958 25.3988 29.0792 26.1492 28.0729 26.1492V26.1532Z" fill="#0478C1"/>
</svg>
