<svg width="42" height="57" viewBox="0 0 42 57" fill="none" xmlns="http://www.w3.org/2000/svg">
<path fill-rule="evenodd" clip-rule="evenodd" d="M1.9508 0.200861C1.25648 0.474325 0.6014 1.10152 0.263411 1.81656L0 2.37397L0.00133384 28.5164C0.00266757 54.559 0.00355735 54.6608 0.228624 55.1606C0.503483 55.771 1.12222 56.4338 1.72051 56.7586L2.16508 57H17.8364H33.5077L34.0459 56.7242C34.6482 56.4156 35.1067 55.9415 35.4798 55.241L35.7305 54.7704L35.7601 37.6825L35.7896 20.5945L35.515 20.3192C35.18 19.9832 34.8008 19.9679 34.4118 20.2749L34.119 20.5059L34.1183 37.1923C34.118 47.8385 34.0779 54.022 34.0079 54.2751C33.9475 54.4931 33.7444 54.8192 33.5567 54.9997L33.2152 55.3278L18.0507 55.3569C1.33806 55.3889 2.33769 55.4299 1.89011 54.6934C1.66683 54.3261 1.66571 54.2056 1.66571 28.5164C1.66571 2.82726 1.66683 2.70675 1.89011 2.33941C2.33169 1.61289 1.62226 1.64934 15.335 1.64934H27.7896L27.0921 2.31433L26.3945 2.97932L14.9894 2.98322C3.6224 2.98712 3.58339 2.9879 3.29153 3.21822L2.99866 3.44921V28.5051V53.5609L3.25585 53.8034L3.51315 54.0457H17.8764H32.2396L32.5124 53.772L32.7852 53.4985V35.7883V18.0782L33.9039 17.9465C37.6517 17.5054 40.5455 15.1115 41.6781 11.5155C42.0501 10.3342 42.1089 8.25887 41.8063 6.98965C41.1464 4.22134 39.376 2.04956 36.7765 0.819807C34.9819 -0.0292376 36.4807 0.037317 18.5588 0.00989247C2.91142 -0.0141876 2.4844 -0.00928238 1.9508 0.200861ZM31.8077 1.76629C30.8897 1.93106 29.6439 2.46305 28.8568 3.02636C27.3844 4.08031 26.3288 5.66659 25.9433 7.40414C25.6975 8.5126 25.7735 10.1973 26.1163 11.2368C26.8205 13.3719 28.4854 15.0833 30.6466 15.8939C31.7541 16.3093 33.7272 16.3747 34.9548 16.0369C39.3516 14.827 41.5814 9.94324 39.6149 5.82991C38.6978 3.91131 36.9729 2.46896 34.9486 1.92771C34.1201 1.70609 32.5831 1.62716 31.8077 1.76629ZM4.66582 7.61361V10.5679L14.4187 10.568L24.1716 10.5682L24.1358 9.25808C24.0882 7.51674 24.2766 6.62611 25.079 4.7987C25.1276 4.68778 23.0511 4.65935 14.903 4.65935H4.66582V7.61361ZM35.0637 4.97819C34.8192 5.09624 34.0973 5.72255 33.4595 6.36992L32.3 7.54695L31.8632 7.15107C30.7615 6.15287 29.5312 6.07962 28.5653 6.95476C28.0098 7.45821 27.7838 7.95776 27.7838 8.68217C27.7838 9.58873 28.0792 10.0492 29.6469 11.5866C31.3384 13.2456 31.7669 13.4444 32.9519 13.1208C33.3137 13.0219 33.8172 12.581 35.6559 10.7524C36.8986 9.51661 38.0167 8.30892 38.1406 8.06868C38.3163 7.72822 38.3562 7.47905 38.3219 6.93781C38.2712 6.13849 37.9409 5.56168 37.2752 5.10973C36.7249 4.73616 35.6921 4.67473 35.0637 4.97819ZM34.1784 8.0038C32.2338 9.93756 32.2684 9.92909 31.0552 8.77715C30.3783 8.13468 30.18 8.00335 29.9773 8.06378C29.6628 8.15742 29.4509 8.42475 29.4509 8.72776C29.4509 9.02642 31.9938 11.5712 32.2921 11.5712C32.4149 11.5712 33.361 10.7085 34.5881 9.4777C36.7827 7.27638 36.9342 7.04717 36.472 6.62756C36.0446 6.2396 35.8118 6.3794 34.1784 8.0038ZM7.18156 7.0086C6.81457 7.29812 6.78 7.89477 7.11099 8.22676C7.44197 8.55875 8.03682 8.52408 8.32546 8.15597C8.58831 7.82086 8.60598 7.67872 8.43249 7.29667C8.31201 7.03168 7.91478 6.7775 7.62091 6.7775C7.54034 6.7775 7.34261 6.88151 7.18156 7.0086ZM10.4047 7.0086C10.0377 7.29812 10.0032 7.89477 10.3342 8.22676C10.5482 8.44148 10.7046 8.44973 14.5383 8.44973H18.52L18.7618 8.19176C19.0823 7.8494 19.0697 7.39143 18.7305 7.05119L18.4578 6.7775H14.5776C10.8205 6.7775 10.6883 6.78486 10.4047 7.0086ZM4.66582 32.3625V52.3735H17.8919H31.1181V35.0904C31.1181 21.3596 31.0895 17.7989 30.9791 17.7669C30.1791 17.5354 29.0157 17.0566 28.4389 16.7219C27.1046 15.9471 25.1759 13.7385 24.8417 12.6024L24.7679 12.3516H14.7169H4.66582V32.3625ZM12.1494 16.9145C11.4958 17.0767 10.7967 17.5765 10.4907 18.1002C10.076 18.8101 10.0026 19.8195 10.3143 20.5263C10.8094 21.6492 12.494 23.0375 14.1282 23.6695C14.9309 23.98 14.997 23.9868 17.5585 24.0223C20.4887 24.0628 20.8403 24.0148 22.171 23.3916C23.8982 22.5827 25.1644 21.3828 25.5056 20.2317C26.0715 18.3225 24.4594 16.5547 22.4814 16.9151C21.1252 17.1622 19.2938 18.3689 18.3285 19.6514L17.8665 20.2651L17.5618 19.8478C17.1153 19.2364 16.0237 18.2308 15.3081 17.7716C14.173 17.0433 12.9586 16.7138 12.1494 16.9145ZM12.0519 18.8682C11.4486 19.4733 11.9182 20.3727 13.3369 21.3292C14.3139 21.9878 15.4263 22.3849 16.2947 22.3849H16.9158L16.8405 22.0784C16.6539 21.3177 15.8116 20.2199 14.8991 19.5481C13.5917 18.5854 12.5756 18.3428 12.0519 18.8682ZM21.7931 18.941C20.6059 19.5361 19.3146 20.8963 18.9483 21.9378L18.791 22.3849H19.3856C20.173 22.3849 21.2389 22.0439 22.0755 21.5245C23.3685 20.7219 23.8937 20.1306 23.8937 19.4778C23.8937 18.5363 23.0374 18.3174 21.7931 18.941ZM15.8914 26.0032C11.3977 26.9736 8.18953 30.495 7.6547 35.0441C7.51366 36.244 7.60647 36.6519 8.06849 36.8631C8.25933 36.9504 9.77777 36.989 13.0056 36.989H17.6671L21.2249 39.0089C23.1818 40.1197 24.7829 41.0962 24.7829 41.1791C24.7829 41.4774 23.1642 42.9752 22.2777 43.4971C20.9105 44.302 19.8904 44.592 18.2054 44.6547C16.4968 44.7183 15.5535 44.539 14.2376 43.9008C12.5226 43.0689 11.1893 41.8156 10.3446 40.2414C9.73665 39.1084 9.32331 38.8761 8.73758 39.3383C8.34491 39.6481 8.35869 40.0575 8.79082 40.916C10.6307 44.5719 14.9104 46.8586 18.9833 46.3619C21.4728 46.0583 23.6421 44.967 25.3445 43.1618C26.4605 41.9784 27.2411 40.5949 27.7401 38.9163C28.1564 37.5153 28.229 35.4503 27.9121 34.0156C27.0732 30.2172 24.392 27.3181 20.7036 26.221C19.4851 25.8586 17.0675 25.7492 15.8914 26.0032ZM16.7249 27.5829C15.52 27.8209 15.1919 27.9092 14.6132 28.1516C11.957 29.2638 9.78033 32.0262 9.38455 34.7873L9.30863 35.3168H13.1557H17.0028V31.415C17.0028 29.2689 16.9902 27.5189 16.975 27.526C16.9598 27.5332 16.8472 27.5587 16.7249 27.5829ZM18.7291 27.6025C18.6446 27.6871 18.6556 34.6479 18.7401 34.6479C18.9464 34.6479 24.8907 31.3377 24.8922 31.222C24.8952 30.9941 23.441 29.5226 22.7432 29.0472C22.0145 28.5509 20.9631 28.0463 20.265 27.8579C19.5363 27.6614 18.7935 27.5378 18.7291 27.6025ZM22.6711 34.4793C21.0512 35.3626 19.7356 36.1181 19.7475 36.1579C19.7726 36.242 25.5561 39.5531 25.6777 39.5531C25.7837 39.5531 26.0466 38.8761 26.2405 38.1039C26.4936 37.0956 26.4356 34.8895 26.1268 33.7839C25.9856 33.278 25.813 32.8662 25.7432 32.8686C25.6735 32.871 24.2911 33.5958 22.6711 34.4793ZM8.73758 48.3683C8.35924 48.6667 8.33535 49.2526 8.68801 49.5821C8.9133 49.7926 9.07268 49.8094 10.8472 49.8094H12.7632L12.9935 49.5157C13.2991 49.126 13.2845 48.7452 12.951 48.4109C12.6836 48.1426 12.6427 48.1372 10.8543 48.1372C9.17737 48.1372 9.00677 48.1558 8.73758 48.3683ZM15.7196 48.4109C15.3862 48.7452 15.3715 49.126 15.6772 49.5157L15.9075 49.8094H17.8445C19.6332 49.8094 19.7984 49.7924 20.0037 49.5865C20.3347 49.2545 20.3001 48.6578 19.9331 48.3683C19.6639 48.1558 19.4933 48.1372 17.8164 48.1372C16.028 48.1372 15.9871 48.1426 15.7196 48.4109ZM22.8497 48.388C22.4477 48.7504 22.4211 49.2242 22.7823 49.5865C22.9872 49.792 23.1527 49.8094 24.899 49.8094C26.7623 49.8094 26.798 49.805 27.0663 49.5357C27.2164 49.3852 27.3392 49.1322 27.3392 48.9733C27.3392 48.8145 27.2164 48.5614 27.0663 48.4109C26.7988 48.1424 26.7585 48.1372 24.9608 48.1372C23.2169 48.1372 23.1146 48.1494 22.8497 48.388Z" fill="#0478C1"/>
</svg>
