<svg width="24" height="25" viewBox="0 0 24 25" fill="none" xmlns="http://www.w3.org/2000/svg">
<path d="M12.0049 0.9375C13.5962 0.9375 15.1223 1.56964 16.2475 2.69486C17.3727 3.82008 18.0049 5.3462 18.0049 6.9375C18.0049 8.5288 17.3727 10.0549 16.2475 11.1801C15.1223 12.3054 13.5962 12.9375 12.0049 12.9375C10.4136 12.9375 8.88746 12.3054 7.76224 11.1801C6.63702 10.0549 6.00488 8.5288 6.00488 6.9375C6.00488 5.3462 6.63702 3.82008 7.76224 2.69486C8.88746 1.56964 10.4136 0.9375 12.0049 0.9375ZM12.0049 15.9375C18.6349 15.9375 24.0049 18.6225 24.0049 21.9375V24.9375H0.00488281V21.9375C0.00488281 18.6225 5.37488 15.9375 12.0049 15.9375Z" fill="#A7A7A7"/>
</svg>
