<svg width="48" height="50" viewBox="0 0 48 50" fill="none" xmlns="http://www.w3.org/2000/svg">
<path d="M26.3612 0.684452C23.7004 1.63833 21.0395 3.79712 20.1359 5.80529C19.684 6.75917 19.1318 7.51224 18.9812 7.51224C18.7804 7.51224 18.1277 6.90979 17.4248 6.20693C15.4167 4.04814 12.555 2.89344 9.19132 2.84324C3.81946 2.79303 -1.20097 4.60039 0.254952 6.05632C0.505974 6.30733 2.16272 6.75917 3.97007 7.0604C5.72722 7.31142 8.03662 7.81347 9.14112 8.11469L11.0991 8.71714L9.44235 9.26939C8.48846 9.57062 7.53458 10.2233 7.23336 10.6751C6.37988 12.0306 7.68519 12.5327 9.84398 11.7294C10.8481 11.378 12.4044 11.0767 13.2077 11.0767C14.4628 11.0767 14.262 11.2274 11.8019 12.2314C10.2456 12.8841 8.38805 13.7878 7.68519 14.2396C6.07866 15.2939 6.02845 15.2939 6.32968 13.7376C6.53049 12.6331 6.43009 12.4825 5.37579 12.6331C4.52232 12.7335 3.81946 13.5368 2.81537 15.5449C-0.196887 21.6197 0.706791 23.176 5.02436 19.3605C6.48029 18.1054 7.7856 17.0511 7.93622 17.0511C8.08683 17.0511 8.18724 18.4568 8.23744 20.2139C8.23744 23.9793 10.0448 28.5981 11.5007 28.5981C12.4044 28.5981 12.6052 28.1964 13.2579 25.0838C13.7097 22.8246 15.9187 17.8041 16.2701 18.2058C16.4207 18.3564 16.2701 21.9209 15.9689 26.0878C15.3665 34.0703 15.6175 35.7271 17.1738 34.1205C17.7261 33.5683 18.0775 30.8071 18.5293 23.8286C18.8306 18.5572 19.2824 14.089 19.5334 13.7878C19.8346 13.5368 20.2363 13.587 20.5877 13.9384C21.3408 14.6915 21.7926 29.9536 21.2404 36.3797L20.8889 40.6471H18.931H16.9228L17.0734 38.2373C17.224 36.1789 17.1236 35.8777 16.2199 35.8777C15.4167 35.8777 15.1154 36.4299 14.6134 38.8899C14.3122 40.4965 14.1616 42.0528 14.262 42.2536C14.4126 42.4545 16.4207 42.6553 18.7301 42.6553H22.9473L23.3489 39.7434C23.5498 38.1871 23.7506 32.3132 23.7506 26.7405V16.5992L24.8049 17.6033C25.3571 18.1054 26.2106 18.5572 26.6624 18.5572C28.0682 18.5572 27.6163 16.9507 25.6583 14.9425C24.102 13.3359 23.9514 13.0347 24.7547 13.0347C27.4657 13.0347 30.5784 16.4988 30.478 19.4107C30.478 20.1637 30.3274 20.5152 30.1767 20.1637C29.8755 19.4609 28.2188 19.3605 27.7669 20.0131C27.6163 20.3143 28.1184 21.7703 28.8714 23.3266C29.9257 25.4854 30.478 26.0878 31.2812 25.9874C31.9339 25.887 32.3857 25.3348 32.5865 24.3307C33.1388 21.7201 33.0384 17.9045 32.3355 15.8964C31.9339 14.8923 31.7833 14.0388 31.8837 14.0388C32.0343 14.0388 33.5906 14.7417 35.398 15.5951C40.4184 18.0049 41.0209 16.047 36.6531 11.378C33.8919 8.46612 32.0845 7.41183 29.022 7.0102L26.7628 6.70897L30.98 4.60039C33.3396 3.44569 35.4984 2.49181 35.8498 2.49181C36.5527 2.49181 37.2053 1.08609 36.7535 0.43343C36.3519 -0.269432 28.52 -0.068615 26.3612 0.684452ZM28.4698 2.69262C28.3694 2.79303 27.0641 3.69671 25.6583 4.65059C22.8971 6.50815 21.8428 6.35754 24.4534 4.55019C26.0098 3.44569 29.2229 1.93956 28.4698 2.69262ZM11.5509 5.50407C12.555 5.80529 13.9105 6.50815 14.5632 7.0604L15.7179 8.06449L14.4628 7.46204C13.7599 7.11061 11.9526 6.40775 10.4464 5.95591C7.53458 5.00203 8.43826 4.65059 11.5509 5.50407ZM31.6327 10.3237C33.9923 11.5286 33.6408 11.9804 30.9298 11.2274C29.4739 10.8759 27.5159 10.5245 26.6624 10.5245C24.8049 10.5245 24.4032 9.72123 26.1604 9.3698C27.6163 9.06857 29.9759 9.47021 31.6327 10.3237ZM15.4669 14.4906C15.4669 14.7919 15.2158 15.1433 14.9648 15.2939C14.262 15.7458 11.4505 21.3686 11.4505 22.3225C11.4505 22.7744 11.2497 22.9752 10.9485 22.8246C10.6975 22.6739 10.4464 21.469 10.4464 20.2139C10.4464 18.256 10.6975 17.7037 12.4044 15.9968C14.262 14.089 15.4669 13.5368 15.4669 14.4906Z" fill="#0478C1"/>
<path d="M32.0911 38.8505H34.4712V41.2306H32.0911V38.8505ZM32.0911 29.3303H34.4712V36.4704H32.0911V29.3303ZM33.2692 23.3801C26.7003 23.3801 21.3809 28.7115 21.3809 35.2804C21.3809 41.8494 26.7003 47.1807 33.2692 47.1807C39.8501 47.1807 45.1814 41.8494 45.1814 35.2804C45.1814 28.7115 39.8501 23.3801 33.2692 23.3801ZM33.2811 44.8006C28.0212 44.8006 23.7609 40.5403 23.7609 35.2804C23.7609 30.0205 28.0212 25.7602 33.2811 25.7602C38.5411 25.7602 42.8014 30.0205 42.8014 35.2804C42.8014 40.5403 38.5411 44.8006 33.2811 44.8006Z" fill="#0478C1"/>
</svg>
