<?xml version="1.0" encoding="utf-8"?>
<!-- Generator: Adobe Illustrator 24.2.3, SVG Export Plug-In . SVG Version: 6.00 Build 0)  -->
<svg version="1.1" id="Layer_1" xmlns="http://www.w3.org/2000/svg" xmlns:xlink="http://www.w3.org/1999/xlink" x="0px" y="0px"
	 viewBox="0 0 492.68 184" style="enable-background:new 0 0 492.68 184;" xml:space="preserve">
<style type="text/css">
	.st0{fill:#0478C1;}
	.st1{fill:none;}
</style>
<g>
	<path class="st0" d="M479.08,131.49l-1.27-0.61l0.8-1.15c8.88-12.74,13.58-27.71,13.58-43.28c0-20.23-7.88-39.26-22.18-53.58
		c-14.3-14.31-33.33-22.19-53.57-22.19h-69.09l-0.35-0.6c-1.87-3.19-3.78-6.58-5.67-10.08l-10.07,5.37
		c2.97,5.51,6.06,10.91,9.23,16.05l0.18,0.29v10.78h-27.46v75.75c0,41.78,33.97,75.76,75.75,75.76c20.24,0,39.27-7.88,53.57-22.18
		c2.09-2.08,4.03-4.27,5.8-6.51l0.18-0.22l0.25-0.12c7.68-3.63,14.68-8.51,20.78-14.53l0.61-0.6l0.77,0.38
		c5.67,2.77,11.5,5.44,17.37,7.91l4.38-10.55C488.07,135.64,483.51,133.6,479.08,131.49 M420.39,164.37
		c-9.56,5.38-20.42,8.21-31.42,8.21c-35.47,0-64.35-28.86-64.35-64.35V43.9h16.05v42.54c0,41.77,33.99,75.75,75.76,75.75
		c1.19,0,2.27-0.02,3.3-0.07l5.07-0.24L420.39,164.37z M458.13,135.42c-5.19,4.42-11.01,7.97-17.3,10.55
		c-7.76,3.19-15.97,4.81-24.39,4.81c-35.47,0-64.35-28.86-64.35-64.34V39l2.17,3.01c0.56,0.79,1.15,1.58,1.74,2.36
		c12.8,17.29,27.48,33.36,43.64,47.78c15.28,13.65,31.92,25.83,49.42,36.22c2.99,1.78,5.98,3.48,8.87,5.07l1.52,0.84L458.13,135.42z
		 M468.06,124.79l-0.61,0.83l-0.91-0.49c-0.85-0.46-1.69-0.91-2.53-1.37c-4.36-2.39-8.69-4.9-12.9-7.49
		c-15.44-9.46-30.19-20.43-43.87-32.62c-12.98-11.6-24.99-24.31-35.7-37.8c-3.61-4.53-7.12-9.19-10.41-13.86
		c-2.09-2.96-3.88-5.59-5.47-8.03l-1.21-1.86h62.01c35.47,0,64.33,28.87,64.33,64.36C480.78,100.39,476.38,113.64,468.06,124.79"/>
	<g>
		<path class="st1" d="M82.65,65.45c6.36,0,11.53-5.18,11.53-11.53V42.37H82.65c-6.37,0-11.54,5.18-11.54,11.54
			C71.1,60.27,76.28,65.45,82.65,65.45z"/>
		<path class="st1" d="M167.66,157.21c7.81,0,14.16-6.35,14.16-14.16v-14.16h-14.16c-7.82,0-14.16,6.35-14.16,14.16
			S159.84,157.21,167.66,157.21z"/>
		<path class="st1" d="M48.43,128.88H34.27v14.16c0,7.81,6.35,14.16,14.16,14.16s14.16-6.35,14.16-14.16
			C62.59,135.24,56.24,128.88,48.43,128.88z"/>
		<path class="st1" d="M106.28,143.05c0,7.81,6.35,14.16,14.16,14.16s14.16-6.35,14.16-14.16c0-7.81-6.35-14.16-14.16-14.16h-14.16
			V143.05z"/>
		<path class="st0" d="M6.4,128.88v22.7c0,6.78,5.51,12.29,12.29,12.31h6.18v-6.68h-6.16c-3.11,0-5.63-2.53-5.63-5.63v-22.7h6.4
			v-6.68h-6.4v-16.17H6.4v16.17H0v6.68H6.4z"/>
		<path class="st0" d="M48.43,122.21H27.59v20.84c0,11.48,9.34,20.84,20.84,20.84s20.84-9.35,20.84-20.84
			C69.27,131.55,59.93,122.21,48.43,122.21z M48.43,157.21c-7.81,0-14.16-6.35-14.16-14.16v-14.16h14.16
			c7.81,0,14.16,6.35,14.16,14.16C62.59,150.86,56.24,157.21,48.43,157.21z"/>
		<path class="st0" d="M146.82,143.05c0,11.49,9.34,20.84,20.84,20.84c5.46,0,10.44-2.12,14.16-5.57v5.73h6.68v-41.84h-20.84
			C156.16,122.21,146.82,131.55,146.82,143.05z M167.66,128.88h14.16v14.16c0,7.81-6.36,14.16-14.16,14.16
			c-7.82,0-14.16-6.35-14.16-14.16S159.84,128.88,167.66,128.88z"/>
		<path class="st0" d="M99.61,106.03v58.01h6.68v-5.72c3.72,3.45,8.7,5.57,14.16,5.57c11.5,0,20.84-9.35,20.84-20.84
			c0-11.5-9.34-20.84-20.84-20.84h-14.16v-16.17H99.61z M120.45,128.88c7.81,0,14.16,6.35,14.16,14.16
			c0,7.81-6.35,14.16-14.16,14.16s-14.16-6.35-14.16-14.16v-14.16H120.45z"/>
		<path class="st0" d="M88.07,124.25c-2.44,0-4.72,0.66-6.69,1.8v-1.8h-6.68v39.64h6.68v-26.27c0-3.69,3-6.69,6.69-6.69h6.1v-6.68
			H88.07z"/>
		<path class="st0" d="M229.51,129.88c-3.93-3.94-9.17-6.11-14.74-6.11h-14.16v-17.74h-6.68v57.85h6.68v-19.27h0v-14.16h14.16
			c3.79,0,7.34,1.47,10.02,4.15c2.67,2.67,4.15,6.23,4.15,10.01h0v19.27h6.68v-19.27h0C235.62,139.04,233.45,133.81,229.51,129.88z"
			/>
		<path class="st0" d="M64.42,53.92c0,10.05,8.18,18.21,18.22,18.21c5.58,0,10.58-2.51,13.91-6.47c0,0,0.01-0.01,0.01-0.01
			c3.48,6.62,10.42,11.15,18.41,11.15h24.63c5.57,0,10.81-2.17,14.73-6.1c3.94-3.93,6.11-9.17,6.11-14.74h0V44.7h-6.68v11.25h0
			c0,3.79-1.47,7.34-4.15,10.01c-2.67,2.67-6.22,4.15-10.01,4.15h-24.63c-7.79,0-14.13-6.34-14.13-14.12v-5.66h0V35.69H82.65
			C72.6,35.69,64.42,43.87,64.42,53.92z M82.65,42.37h11.53v11.54c0,6.36-5.18,11.53-11.53,11.53c-6.37,0-11.54-5.18-11.54-11.53
			C71.1,47.55,76.28,42.37,82.65,42.37z"/>
		<path class="st0" d="M177.78,44.7v13.92h0v18.8c0,3.69-3,8.59-6.69,8.59h-6.11v6.68h6.11c7.28,0,13.2-7.7,13.35-14.99h0.01v-0.28
			c0,0,0,0,0,0l0,0v-0.63h29.86c5.57,0,10.81-2.17,14.73-6.1c3.94-3.93,6.11-9.17,6.11-14.74h0V44.7h-6.68v11.25h0
			c0,3.79-1.47,7.34-4.15,10.01c-2.67,2.67-6.22,4.15-10.01,4.15h-29.86V44.7H177.78z"/>
		<rect x="146.86" y="86.01" class="st0" width="6.68" height="6.68"/>
		<polygon class="st0" points="94.1,27.39 94.1,27.39 100.78,27.39 100.78,20.71 94.1,20.71 94.1,20.71 87.42,20.71 80.75,20.71 
			80.75,27.39 87.42,27.39 		"/>
		<polygon class="st0" points="228.48,20.71 221.8,20.71 215.13,20.71 215.13,27.39 221.8,27.39 228.48,27.39 228.48,27.39 
			235.16,27.39 235.16,20.71 228.48,20.71 		"/>
	</g>
</g>
</svg>
