<svg width="40" height="49" viewBox="0 0 40 49" fill="none" xmlns="http://www.w3.org/2000/svg">
<path d="M28.2968 0.721107C28.2968 1.44831 28.5265 1.48658 33.0811 1.48658H37.8653V5.31396V9.14135H35.6837C33.1959 9.14135 32.2773 9.52408 32.6218 10.4427C32.8131 10.9019 33.4255 11.055 35.3775 11.055H37.8653V13.1601V15.2652H35.6837C33.1959 15.2652 32.2773 15.6479 32.6218 16.5665C32.8131 17.0257 33.4255 17.1788 35.3775 17.1788H37.8653V19.2839V21.389H35.6837C33.1959 21.389 32.2773 21.7717 32.6218 22.6903C32.8131 23.1496 33.4255 23.3027 35.3775 23.3027H37.8653V25.4077V27.5128H35.6837C33.1959 27.5128 32.2773 27.8955 32.6218 28.8141C32.8131 29.2734 33.4255 29.4265 35.3775 29.4265H37.8653V31.5315V33.6366H35.6837C33.1959 33.6366 32.2773 34.0193 32.6218 34.9379C32.8131 35.3972 33.4255 35.5503 35.3775 35.5503H37.8653V37.6553V39.7604H35.6837C33.1959 39.7604 32.2773 40.1431 32.6218 41.0617C32.8131 41.521 33.4255 41.6741 35.3775 41.6741H37.8653V44.5446V47.3769L33.0045 47.4917C28.9475 47.6065 28.1055 47.7213 28.1055 48.1806C28.1055 48.6782 29.0623 48.7547 33.9614 48.8696L39.779 48.9844L39.7024 24.5657L39.5876 0.146999L33.9614 0.0321808C28.4882 -0.0443687 28.2968 -0.0443687 28.2968 0.721107Z" fill="#3375BA"/>
<path d="M13.0641 3.32371C12.4134 3.74472 6.05997 15.4182 6.17479 16.0306C6.25134 16.3368 6.5958 16.643 6.94026 16.7195C7.36128 16.7961 8.16503 15.7244 9.69598 12.8922C10.8442 10.7105 12.222 8.26102 12.7196 7.45728L13.6382 5.9646L15.0926 8.41412C15.8963 9.7537 17.81 13.3132 19.3793 16.2985L22.2498 21.7717H13.7913C9.12187 21.7717 5.33277 21.6951 5.33277 21.6186C5.33277 21.542 5.60068 20.8531 5.90687 20.1259C6.67235 18.2505 6.63407 17.5616 5.7155 17.5616C4.83521 17.5616 2.92152 21.4272 1.0461 26.9386C0.05098 29.8857 -0.102115 30.8043 0.05098 33.139C0.471992 39.3776 4.95003 44.315 11.3035 45.4632C20.604 47.1472 28.8712 38.8035 26.9192 29.5795C26.0006 25.178 21.867 16.2985 16.3556 6.80662C14.3654 3.43853 13.8678 2.86442 13.0641 3.32371ZM23.819 25.867C24.7376 28.3165 25.6179 31.1488 25.6179 31.7994C25.6179 31.9908 20.2595 32.1056 13.7147 32.1056H1.7733L2.00294 30.6129C2.07949 29.8092 2.69187 27.8189 3.26598 26.2114L4.37592 23.3026H13.5999H22.8239L23.819 25.867ZM25.2351 34.3255C25.2351 35.5503 22.9387 39.6838 21.6757 40.7555C18.0779 43.8174 12.911 44.6594 8.85396 42.8605C6.32788 41.7123 3.34253 38.5356 2.5005 36.0861C2.15604 35.091 1.88812 34.1341 1.88812 33.9427C1.88812 33.7897 7.13163 33.6366 13.5616 33.6366C24.661 33.6366 25.2351 33.6748 25.2351 34.3255Z" fill="#3375BA"/>
</svg>
